# xmcd
#
# Track frame offsets: 
#        150
#        18565
#        55695
#        85847
#        116185
#        134532
#
# Disc length: 2079 seconds
#
# Revision: 0
# Processed by: cddbd v1.5.2PL0 Copyright (c) Steve Scherf et al.
# Submitted via: ExactAudioCopy v0.99pb4
#
DISCID=4d081d06
DTITLE=Lighthouse Family - Postcards From Heaven CD2
DYEAR=1997
DGENRE=R&B
TTITLE0=Lost In Space (Itaal Shur's Full Mix Edit)
TTITLE1=Raincloud (Basement Boys Paradox Vocal Mix)
TTITLE2=High (Itaal Shur's Beautiful Urbam Dreamscape Mix)
TTITLE3=High (Inner City Mix)
TTITLE4=Lifted (Linslee Mix)
TTITLE5=Ocean Drive (Linslee Mix)
EXTD=
EXTT0=
EXTT1=
EXTT2=
EXTT3=
EXTT4=
EXTT5=
PLAYORDER=
